<?xml version="1.0" encoding="UTF-8"?><svg width="200px" height="230px" viewBox="0 0 200 230" version="1.1" xmlns="http://www.w3.org/2000/svg" xmlns:xlink="http://www.w3.org/1999/xlink"><title>Flux</title><desc>Flux for Craft CMS (by Flipbox)</desc><defs><linearGradient x1="0%" y1="0%" x2="50%" y2="100%" id="linearGradient-1"><stop stop-color="#FF00EA" offset="0%"></stop><stop stop-color="#D60878" offset="100%"></stop></linearGradient></defs><g id="Page-1" stroke="none" stroke-width="1" fill="none" fill-rule="evenodd"><g id="Flux" fill-rule="nonzero"><g id="Icon"><polygon id="Polygon" fill="url(#linearGradient-1)" points="100 0 200 57.5 200 172.5 100 230 0 172.5 0 57.5"></polygon><g id="Group" transform="translate(50.285156, 65.785156)" fill="#FFFFFF"><path d="M0.101393649,0.101393649 L0.101393649,16.6285585 L99.2305848,16.6285585 L99.2305848,0.101393649 L0.101393649,0.101393649 Z M60.0250404,10.4435459 L10.4435459,10.4435459 L10.4435459,6.32020414 L60.0250404,6.32020414 L60.0250404,10.4435459 Z M74.4567365,10.4435459 L70.3333947,10.4435459 L70.3333947,6.32020414 L74.4567365,6.32020414 L74.4567365,10.4435459 Z M82.7372178,10.4435459 L78.6138761,10.4435459 L78.6138761,6.32020414 L82.7372178,6.32020414 L82.7372178,10.4435459 Z M90.9839013,10.4435459 L86.8605595,10.4435459 L86.8605595,6.32020414 L90.9839013,6.32020414 L90.9839013,10.4435459 Z" id="Shape"></path><path d="M0.101393649,99.2643826 L99.2305848,99.2643826 L99.2305848,20.7519002 L0.101393649,20.7519002 L0.101393649,99.2643826 Z M24.9090398,43.4640777 L69.4884476,43.4640777 L61.3431578,35.3187878 L64.2497758,32.4121699 L77.3971523,45.5595464 L64.2497758,58.7069229 L61.3431578,55.800305 L69.4884476,47.6550152 L24.9090398,47.6550152 L24.9090398,43.4640777 Z M35.1160005,60.5996044 L38.0226185,63.5062223 L29.8773287,71.6515122 L74.4567365,71.6515122 L74.4567365,75.7748539 L29.8773287,75.7748539 L38.0226185,83.9201437 L35.1160005,86.8267617 L21.968624,73.7469809 L35.1160005,60.5996044 Z" id="Shape"></path></g></g></g></g></svg>